<?xml version="1.0" encoding="UTF-8"?>
<svg xmlns="http://www.w3.org/2000/svg" width="1620" height="942" viewBox="0 0 1620 942" role="img" aria-label="Toros logo vector">
  <g fill="#ffffff" fill-rule="evenodd">
  <path d="M 878.0 345.0 L 877.0 348.0 L 875.0 345.0 L 869.0 345.0 L 869.0 350.0 L 867.0 351.0 L 866.0 349.0 L 866.0 356.0 L 863.0 360.0 L 864.0 364.0 L 861.0 365.0 L 861.0 370.0 L 858.0 371.0 L 858.0 376.0 L 855.0 377.0 L 855.0 382.0 L 852.0 382.0 L 852.0 387.0 L 849.0 388.0 L 849.0 393.0 L 844.0 396.0 L 844.0 399.0 L 841.0 402.0 L 841.0 407.0 L 838.0 408.0 L 838.0 412.0 L 835.0 413.0 L 835.0 421.0 L 832.0 422.0 L 832.0 427.0 L 829.0 428.0 L 829.0 435.0 L 827.0 436.0 L 826.0 449.0 L 824.0 450.0 L 824.0 503.0 L 821.0 504.0 L 824.0 506.0 L 821.0 507.0 L 821.0 510.0 L 813.0 516.0 L 813.0 518.0 L 810.0 519.0 L 810.0 521.0 L 807.0 522.0 L 807.0 524.0 L 804.0 525.0 L 804.0 527.0 L 799.0 530.0 L 799.0 532.0 L 796.0 533.0 L 796.0 535.0 L 793.0 536.0 L 793.0 538.0 L 790.0 539.0 L 790.0 541.0 L 787.0 542.0 L 787.0 544.0 L 784.0 545.0 L 779.0 552.0 L 776.0 553.0 L 772.0 559.0 L 770.0 559.0 L 769.0 562.0 L 761.0 567.0 L 761.0 577.0 L 758.0 578.0 L 758.0 669.0 L 764.0 669.0 L 766.0 664.0 L 773.0 660.0 L 772.0 656.0 L 775.0 655.0 L 775.0 653.0 L 778.0 652.0 L 782.0 646.0 L 790.0 641.0 L 790.0 636.0 L 792.0 633.0 L 795.0 632.0 L 795.0 630.0 L 798.0 629.0 L 798.0 627.0 L 801.0 626.0 L 805.0 620.0 L 807.0 621.0 L 810.0 617.0 L 809.0 613.0 L 813.0 613.0 L 812.0 610.0 L 815.0 609.0 L 815.0 607.0 L 818.0 606.0 L 822.0 600.0 L 824.0 601.0 L 824.0 599.0 L 827.0 598.0 L 827.0 594.0 L 832.0 593.0 L 829.0 591.0 L 832.0 590.0 L 832.0 588.0 L 839.0 581.0 L 841.0 581.0 L 847.0 573.0 L 849.0 573.0 L 846.0 571.0 L 849.0 570.0 L 849.0 568.0 L 852.0 567.0 L 852.0 565.0 L 864.0 555.0 L 863.0 551.0 L 866.0 550.0 L 870.0 544.0 L 872.0 544.0 L 875.0 538.0 L 881.0 536.0 L 881.0 531.0 L 883.0 528.0 L 886.0 527.0 L 886.0 525.0 L 889.0 524.0 L 893.0 518.0 L 898.0 516.0 L 901.0 512.0 L 900.0 508.0 L 903.0 507.0 L 903.0 505.0 L 906.0 504.0 L 906.0 502.0 L 909.0 501.0 L 909.0 499.0 L 916.0 492.0 L 918.0 493.0 L 920.0 490.0 L 920.0 485.0 L 926.0 482.0 L 931.0 474.0 L 935.0 473.0 L 938.0 466.0 L 942.0 465.0 L 940.0 463.0 L 943.0 462.0 L 947.0 456.0 L 949.0 456.0 L 949.0 445.0 L 946.0 444.0 L 946.0 439.0 L 944.0 439.0 L 943.0 436.0 L 941.0 437.0 L 940.0 433.0 L 937.0 432.0 L 938.0 428.0 L 934.0 427.0 L 932.0 424.0 L 932.0 419.0 L 923.0 413.0 L 923.0 408.0 L 917.0 404.0 L 918.0 399.0 L 916.0 402.0 L 915.0 397.0 L 906.0 390.0 L 906.0 386.0 L 904.0 386.0 L 900.0 381.0 L 901.0 377.0 L 892.0 370.0 L 892.0 365.0 L 886.0 362.0 L 883.0 358.0 L 884.0 354.0 L 881.0 354.0 L 878.0 350.0 Z"/>
  <path d="M 614.0 345.0 L 614.0 347.0 L 608.0 351.0 L 608.0 356.0 L 602.0 360.0 L 602.0 364.0 L 599.0 365.0 L 595.0 371.0 L 593.0 371.0 L 594.0 376.0 L 585.0 382.0 L 585.0 387.0 L 579.0 391.0 L 579.0 395.0 L 577.0 396.0 L 576.0 394.0 L 577.0 398.0 L 571.0 402.0 L 571.0 407.0 L 562.0 413.0 L 562.0 418.0 L 559.0 422.0 L 556.0 422.0 L 554.0 425.0 L 554.0 430.0 L 551.0 431.0 L 551.0 433.0 L 548.0 434.0 L 548.0 438.0 L 542.0 442.0 L 541.0 448.0 L 539.0 445.0 L 539.0 456.0 L 541.0 453.0 L 542.0 459.0 L 547.0 461.0 L 548.0 464.0 L 550.0 464.0 L 551.0 467.0 L 557.0 471.0 L 559.0 474.0 L 559.0 479.0 L 567.0 484.0 L 568.0 487.0 L 570.0 487.0 L 571.0 490.0 L 577.0 494.0 L 576.0 498.0 L 578.0 496.0 L 579.0 501.0 L 584.0 504.0 L 585.0 507.0 L 591.0 511.0 L 591.0 513.0 L 594.0 514.0 L 593.0 518.0 L 596.0 516.0 L 599.0 520.0 L 599.0 524.0 L 604.0 526.0 L 605.0 529.0 L 611.0 533.0 L 611.0 535.0 L 616.0 539.0 L 616.0 543.0 L 617.0 541.0 L 619.0 542.0 L 619.0 547.0 L 624.0 549.0 L 625.0 552.0 L 631.0 556.0 L 633.0 559.0 L 633.0 564.0 L 635.0 561.0 L 636.0 567.0 L 641.0 569.0 L 642.0 572.0 L 648.0 576.0 L 647.0 579.0 L 651.0 579.0 L 653.0 582.0 L 653.0 587.0 L 658.0 589.0 L 659.0 592.0 L 661.0 592.0 L 662.0 595.0 L 668.0 599.0 L 667.0 603.0 L 668.0 601.0 L 670.0 602.0 L 670.0 607.0 L 678.0 612.0 L 679.0 615.0 L 685.0 619.0 L 684.0 623.0 L 686.0 621.0 L 687.0 626.0 L 692.0 629.0 L 693.0 632.0 L 695.0 632.0 L 696.0 635.0 L 702.0 639.0 L 702.0 641.0 L 705.0 642.0 L 704.0 646.0 L 709.0 649.0 L 710.0 652.0 L 716.0 656.0 L 716.0 658.0 L 719.0 659.0 L 721.0 666.0 L 723.0 664.0 L 724.0 667.0 L 726.0 666.0 L 727.0 669.0 L 730.0 669.0 L 730.0 570.0 L 724.0 566.0 L 722.0 563.0 L 724.0 561.0 L 722.0 561.0 L 719.0 556.0 L 718.0 558.0 L 716.0 557.0 L 716.0 553.0 L 714.0 556.0 L 713.0 553.0 L 711.0 553.0 L 710.0 550.0 L 708.0 550.0 L 707.0 547.0 L 701.0 543.0 L 704.0 541.0 L 700.0 541.0 L 699.0 536.0 L 697.0 539.0 L 696.0 536.0 L 694.0 536.0 L 693.0 533.0 L 691.0 533.0 L 690.0 530.0 L 688.0 530.0 L 687.0 527.0 L 685.0 527.0 L 676.0 518.0 L 676.0 516.0 L 674.0 516.0 L 673.0 513.0 L 667.0 509.0 L 668.0 467.0 L 665.0 464.0 L 665.0 445.0 L 662.0 444.0 L 662.0 434.0 L 659.0 432.0 L 659.0 425.0 L 656.0 424.0 L 656.0 419.0 L 654.0 419.0 L 653.0 414.0 L 650.0 413.0 L 651.0 408.0 L 647.0 407.0 L 648.0 402.0 L 645.0 401.0 L 645.0 396.0 L 642.0 396.0 L 642.0 391.0 L 639.0 390.0 L 639.0 385.0 L 636.0 384.0 L 636.0 380.0 L 633.0 379.0 L 633.0 374.0 L 630.0 373.0 L 631.0 369.0 L 627.0 367.0 L 628.0 361.0 L 625.0 361.0 L 625.0 354.0 L 622.0 353.0 L 622.0 348.0 L 620.0 348.0 L 619.0 345.0 Z"/>
  <path d="M 1051.0 160.0 L 1046.0 160.0 L 1046.0 165.0 L 1043.0 166.0 L 1043.0 168.0 L 1040.0 169.0 L 1036.0 175.0 L 1031.0 177.0 L 1034.0 179.0 L 1031.0 180.0 L 1025.0 189.0 L 1020.0 189.0 L 1017.0 195.0 L 1009.0 197.0 L 1008.0 200.0 L 1003.0 200.0 L 999.0 206.0 L 995.0 206.0 L 994.0 209.0 L 989.0 209.0 L 988.0 212.0 L 983.0 211.0 L 982.0 214.0 L 975.0 214.0 L 974.0 217.0 L 966.0 217.0 L 965.0 220.0 L 957.0 220.0 L 956.0 223.0 L 946.0 223.0 L 945.0 226.0 L 935.0 226.0 L 934.0 229.0 L 921.0 228.0 L 917.0 231.0 L 898.0 231.0 L 897.0 234.0 L 867.0 234.0 L 865.0 237.0 L 626.0 237.0 L 624.0 234.0 L 594.0 234.0 L 593.0 231.0 L 575.0 231.0 L 574.0 229.0 L 570.0 228.0 L 557.0 229.0 L 556.0 226.0 L 543.0 226.0 L 542.0 223.0 L 535.0 223.0 L 534.0 220.0 L 532.0 223.0 L 531.0 220.0 L 523.0 220.0 L 523.0 217.0 L 515.0 217.0 L 514.0 214.0 L 509.0 214.0 L 505.0 211.0 L 501.0 212.0 L 500.0 209.0 L 495.0 209.0 L 494.0 206.0 L 489.0 206.0 L 483.0 198.0 L 480.0 200.0 L 480.0 197.0 L 477.0 195.0 L 472.0 195.0 L 471.0 192.0 L 469.0 192.0 L 468.0 189.0 L 466.0 189.0 L 454.0 177.0 L 454.0 175.0 L 448.0 171.0 L 447.0 166.0 L 440.0 166.0 L 440.0 177.0 L 443.0 178.0 L 443.0 185.0 L 446.0 186.0 L 445.0 191.0 L 449.0 193.0 L 448.0 197.0 L 451.0 198.0 L 451.0 203.0 L 453.0 203.0 L 454.0 208.0 L 457.0 209.0 L 455.0 212.0 L 460.0 212.0 L 460.0 217.0 L 466.0 221.0 L 468.0 228.0 L 476.0 234.0 L 486.0 246.0 L 493.0 248.0 L 494.0 252.0 L 497.0 254.0 L 502.0 254.0 L 505.0 260.0 L 510.0 260.0 L 511.0 263.0 L 516.0 263.0 L 517.0 265.0 L 515.0 266.0 L 521.0 265.0 L 523.0 269.0 L 527.0 268.0 L 528.0 271.0 L 533.0 271.0 L 534.0 274.0 L 538.0 274.0 L 540.0 277.0 L 547.0 277.0 L 548.0 280.0 L 556.0 280.0 L 557.0 283.0 L 567.0 283.0 L 568.0 286.0 L 578.0 285.0 L 582.0 289.0 L 590.0 289.0 L 591.0 291.0 L 609.0 291.0 L 611.0 294.0 L 635.0 294.0 L 636.0 297.0 L 642.0 298.0 L 642.0 314.0 L 644.0 315.0 L 644.0 325.0 L 647.0 329.0 L 647.0 337.0 L 650.0 337.0 L 650.0 345.0 L 653.0 346.0 L 653.0 351.0 L 656.0 352.0 L 656.0 356.0 L 659.0 357.0 L 659.0 362.0 L 662.0 363.0 L 662.0 368.0 L 664.0 369.0 L 662.0 371.0 L 667.0 374.0 L 667.0 379.0 L 670.0 380.0 L 670.0 385.0 L 673.0 386.0 L 673.0 390.0 L 676.0 391.0 L 676.0 396.0 L 679.0 397.0 L 679.0 405.0 L 681.0 406.0 L 681.0 410.0 L 685.0 411.0 L 684.0 419.0 L 687.0 420.0 L 687.0 430.0 L 690.0 431.0 L 690.0 442.0 L 693.0 443.0 L 691.0 445.0 L 693.0 446.0 L 693.0 493.0 L 704.0 501.0 L 705.0 504.0 L 716.0 515.0 L 718.0 515.0 L 722.0 521.0 L 725.0 522.0 L 727.0 527.0 L 739.0 536.0 L 739.0 539.0 L 750.0 539.0 L 751.0 535.0 L 758.0 533.0 L 756.0 531.0 L 759.0 530.0 L 758.0 528.0 L 761.0 527.0 L 761.0 525.0 L 764.0 524.0 L 768.0 518.0 L 771.0 516.0 L 773.0 518.0 L 772.0 514.0 L 775.0 513.0 L 775.0 511.0 L 778.0 510.0 L 782.0 504.0 L 785.0 502.0 L 787.0 504.0 L 790.0 502.0 L 792.0 497.0 L 795.0 496.0 L 792.0 494.0 L 796.0 493.0 L 796.0 451.0 L 798.0 450.0 L 798.0 434.0 L 801.0 433.0 L 801.0 426.0 L 804.0 425.0 L 804.0 414.0 L 806.0 413.0 L 807.0 415.0 L 807.0 409.0 L 810.0 407.0 L 810.0 400.0 L 813.0 399.0 L 812.0 394.0 L 815.0 393.0 L 815.0 389.0 L 818.0 388.0 L 818.0 383.0 L 821.0 382.0 L 821.0 377.0 L 824.0 376.0 L 824.0 371.0 L 827.0 371.0 L 826.0 366.0 L 830.0 364.0 L 829.0 360.0 L 832.0 359.0 L 833.0 355.0 L 835.0 354.0 L 835.0 349.0 L 838.0 348.0 L 838.0 340.0 L 841.0 339.0 L 841.0 332.0 L 844.0 331.0 L 844.0 321.0 L 847.0 317.0 L 847.0 301.0 L 849.0 298.0 L 852.0 297.0 L 853.0 294.0 L 878.0 294.0 L 879.0 291.0 L 898.0 291.0 L 899.0 289.0 L 920.0 286.0 L 924.0 283.0 L 932.0 283.0 L 932.0 280.0 L 940.0 280.0 L 941.0 277.0 L 948.0 277.0 L 949.0 274.0 L 954.0 274.0 L 955.0 271.0 L 960.0 271.0 L 961.0 269.0 L 974.0 266.0 L 978.0 260.0 L 983.0 260.0 L 984.0 257.0 L 989.0 257.0 L 991.0 252.0 L 995.0 249.0 L 1000.0 249.0 L 999.0 247.0 L 1006.0 240.0 L 1009.0 242.0 L 1008.0 238.0 L 1011.0 237.0 L 1011.0 235.0 L 1014.0 234.0 L 1014.0 232.0 L 1017.0 231.0 L 1021.0 225.0 L 1026.0 223.0 L 1026.0 218.0 L 1028.0 215.0 L 1034.0 212.0 L 1031.0 210.0 L 1034.0 209.0 L 1035.0 205.0 L 1037.0 205.0 L 1037.0 201.0 L 1040.0 200.0 L 1040.0 195.0 L 1043.0 194.0 L 1043.0 190.0 L 1046.0 188.0 L 1045.0 181.0 L 1049.0 180.0 L 1050.0 175.0 L 1048.0 172.0 L 1051.0 171.0 Z"/>
  </g>
</svg>
