<?xml version="1.0" encoding="UTF-8"?>
<svg xmlns="http://www.w3.org/2000/svg" width="1329" height="1108" viewBox="826 278 1329 1108" role="img" aria-label="Toros logo vector">
  <g transform="translate(0.000000,1884.000000) scale(0.100000,-0.100000)"
fill="#ffffff" stroke="none">
<path d="M20816 15429 c-26 -17 -82 -70 -124 -117 -165 -183 -210 -227 -302
-296 -53 -40 -134 -94 -180 -120 -47 -27 -141 -85 -208 -129 -138 -89 -214
-126 -388 -190 -372 -138 -853 -276 -1056 -303 -62 -8 -151 -21 -198 -29 -47
-8 -136 -19 -199 -25 -62 -6 -159 -20 -215 -31 -67 -13 -172 -23 -311 -29
-155 -6 -239 -14 -320 -32 l-110 -23 -2295 0 -2295 0 -110 23 c-82 18 -164 26
-320 32 -142 6 -241 15 -305 29 -52 11 -124 22 -160 26 -36 4 -135 17 -220 30
-85 13 -186 26 -225 30 -237 21 -660 136 -1067 288 -256 96 -370 152 -490 239
-46 33 -134 91 -195 129 -148 92 -191 127 -364 294 -179 173 -232 202 -279
155 -49 -49 -12 -216 105 -472 76 -165 123 -241 278 -453 299 -409 632 -685
1114 -924 480 -238 681 -314 1013 -386 69 -14 172 -39 230 -55 148 -41 228
-57 360 -70 63 -6 162 -20 219 -31 58 -11 167 -24 242 -29 190 -12 262 -34
321 -97 44 -46 65 -109 93 -278 51 -312 123 -541 247 -789 45 -88 106 -215
137 -281 31 -66 109 -221 173 -345 76 -147 143 -295 193 -425 85 -221 97 -258
156 -489 92 -361 91 -349 99 -776 4 -212 12 -399 17 -415 34 -102 81 -155 530
-603 159 -159 299 -289 333 -311 68 -44 144 -66 192 -56 87 19 130 54 388 318
156 159 294 290 356 338 115 89 154 130 188 197 45 88 48 115 56 462 8 347 30
581 70 730 35 134 121 405 154 489 19 47 55 138 79 201 25 63 150 327 278 585
187 376 246 503 292 636 68 194 119 397 142 559 23 161 39 205 95 261 61 61
113 77 296 89 77 5 188 18 245 29 57 11 154 25 214 31 61 6 220 33 355 60 339
68 589 149 1000 328 63 27 156 65 207 85 253 99 730 459 1023 775 343 370 669
1034 574 1170 -22 32 -70 29 -128 -9z"/>
<path d="M12252 11843 c-44 -22 -95 -80 -237 -273 -66 -89 -162 -219 -214
-289 -52 -69 -162 -220 -244 -336 -82 -115 -175 -241 -207 -280 -82 -101 -476
-659 -505 -715 -10 -19 -20 -65 -23 -102 -7 -98 21 -148 167 -301 64 -67 150
-167 191 -222 40 -55 122 -149 180 -210 59 -60 150 -164 202 -230 52 -66 149
-176 214 -245 66 -69 153 -165 194 -215 41 -49 125 -142 186 -207 61 -64 148
-164 193 -221 44 -58 121 -148 170 -200 49 -52 121 -137 160 -190 39 -53 123
-151 186 -218 64 -66 148 -164 189 -217 40 -54 114 -140 163 -193 50 -53 123
-139 162 -192 39 -53 115 -143 168 -199 54 -57 135 -150 180 -208 45 -58 131
-158 191 -222 60 -64 146 -163 190 -220 150 -196 317 -348 381 -348 31 0 80
48 93 93 10 32 13 223 13 837 0 913 6 847 -96 999 -42 64 -92 119 -167 188
-59 54 -177 168 -262 254 -85 86 -225 220 -310 297 -210 190 -329 324 -377
428 l-28 59 -6 365 c-4 277 -9 383 -22 440 -8 41 -20 126 -27 189 -18 185 -69
394 -139 569 -42 105 -257 544 -454 927 -68 132 -147 300 -176 372 -29 73 -66
151 -82 173 -55 76 -126 98 -197 63z"/>
<path d="M17403 11841 c-45 -28 -75 -78 -132 -216 -92 -226 -188 -415 -342
-672 -99 -165 -188 -348 -278 -573 -76 -191 -98 -267 -138 -470 -25 -129 -26
-155 -33 -595 -8 -474 -10 -497 -53 -595 -31 -71 -93 -139 -607 -657 -350
-353 -536 -548 -557 -584 -38 -65 -78 -198 -93 -311 -7 -55 -10 -314 -8 -778
4 -741 4 -747 53 -796 53 -53 131 -21 237 98 40 45 120 131 177 192 57 61 136
153 174 206 39 52 132 158 207 235 75 77 168 183 207 236 39 53 123 150 185
215 63 66 149 164 193 219 43 55 124 147 180 205 55 58 135 150 177 205 41 55
120 147 174 205 55 58 134 150 176 205 41 55 117 145 168 200 50 55 119 136
153 180 33 44 122 143 198 220 76 78 171 188 214 249 43 60 126 159 184 220
59 61 147 158 196 216 49 58 140 161 203 229 261 287 335 400 334 514 0 85
-29 154 -112 267 -38 52 -109 153 -157 224 -48 71 -115 164 -148 205 -34 42
-102 135 -152 206 -51 72 -135 182 -188 245 -53 63 -127 165 -165 225 -65 104
-121 181 -285 389 -115 146 -169 208 -196 229 -40 29 -107 33 -146 8z"/>
</g>
</svg>
